<?xml version="1.0" encoding="utf-8"?>
<!-- Generator: Adobe Illustrator 16.0.0, SVG Export Plug-In . SVG Version: 6.00 Build 0)  -->
<!DOCTYPE svg PUBLIC "-//W3C//DTD SVG 1.1//EN" "http://www.w3.org/Graphics/SVG/1.1/DTD/svg11.dtd">
<svg version="1.1" id="Layer_1" xmlns="http://www.w3.org/2000/svg" xmlns:xlink="http://www.w3.org/1999/xlink" x="0px" y="0px"
	 width="348px" height="108px" viewBox="0 0 348 108" enable-background="new 0 0 348 108" xml:space="preserve">
<g>
	<g>
		<g>
			<g>
				<path fill="#999999" d="M4.815,10.054c-0.767,31.894,2.945,63.664,3.023,95.544c0.005,1.935,3.005,1.935,3,0
					c-0.078-31.88-3.79-63.65-3.023-95.544C7.862,8.118,4.861,8.123,4.815,10.054L4.815,10.054z"/>
			</g>
		</g>
		<g>
			<g>
				<path fill="#999999" d="M2,11.984c21.026-0.026,42.034-0.859,63.019-2.152c1.922-0.118,1.933-3.119,0-3
					C44.034,8.125,23.026,8.958,2,8.984C0.065,8.987,0.065,11.987,2,11.984L2,11.984z"/>
			</g>
		</g>
		<g>
			<g>
				<path fill="#999999" d="M64.814,6.181c-1.166,29.89,5.043,59.359,6.906,89.089c0.12,1.921,3.121,1.933,3,0
					C72.857,65.54,66.648,36.07,67.814,6.181C67.89,4.245,64.89,4.252,64.814,6.181L64.814,6.181z"/>
			</g>
		</g>
		<g>
			<g>
				<path fill="#999999" d="M8.441,98.438c24.771-6.848,50.288-10.611,76.001-10.706c1.935-0.007,1.935-3.007,0-3
					C58.475,84.827,32.66,88.629,7.645,95.545C5.782,96.06,6.574,98.954,8.441,98.438L8.441,98.438z"/>
			</g>
		</g>
		<g>
			<path fill="#CCCCCC" d="M25.74,38.028c-3.022-12.481,25.898-9.468,24.604-3.013c-0.864,3.443-20.719,3.874-25.467,3.874"/>
			<g>
				<path fill="#999999" d="M27.187,37.629c-1.8-9.25,15.795-7.066,20.352-4.507c4.45,2.499-6.636,3.431-7.925,3.568
					c-4.884,0.52-9.826,0.685-14.736,0.699c-1.935,0.005-1.935,3.005,0,3c7.296-0.021,14.85-0.192,21.988-1.819
					c4.453-1.015,6.89-4.484,2.652-7.735c-6.775-5.199-27.627-4.761-25.224,7.592C24.663,40.325,27.555,39.52,27.187,37.629
					L27.187,37.629z"/>
			</g>
		</g>
		<g>
			<g>
				<path fill="#999999" d="M20.129,63.094c-1.225-1.838-1.801-4.061-0.833-6.152c0.947-2.046,2.887-1.998,4.476-0.697
					c3.283,2.688,2.243,8.522-2.348,8.688c-1.929,0.069-1.936,3.07,0,3c7.634-0.276,9.496-9.694,4.018-14.18
					c-2.524-2.066-5.994-1.982-8.063,0.648c-2.348,2.986-1.843,7.2,0.16,10.206C18.605,66.209,21.205,64.709,20.129,63.094
					L20.129,63.094z"/>
			</g>
		</g>
		<g>
			<g>
				<path fill="#999999" d="M32.215,55.022c8.66-0.15,17.002-2.131,25.433-3.928c1.892-0.403,1.09-3.295-0.797-2.893
					c-8.165,1.74-16.245,3.675-24.636,3.82C30.282,52.056,30.279,55.056,32.215,55.022L32.215,55.022z"/>
			</g>
		</g>
		<g>
			<g>
				<path fill="#999999" d="M34.372,61.048c8.292-0.063,16.449-0.987,24.571-2.637c1.896-0.385,1.092-3.276-0.797-2.893
					c-7.865,1.597-15.75,2.469-23.774,2.529C32.438,58.063,32.437,61.063,34.372,61.048L34.372,61.048z"/>
			</g>
		</g>
		<g>
			<g>
				<path fill="#999999" d="M19.978,76.363c-1.072,3.151-0.552,6.37,2.196,8.422c2.236,1.67,5.415,1.239,7.409-0.539
					c2.598-2.316,2.548-7.103,0.39-9.646c-2.605-3.069-7.041-3.21-10.674-2.296c-1.876,0.472-1.08,3.365,0.797,2.893
					c2.322-0.584,5.209-0.76,7.164,0.886c1.712,1.439,1.711,4.474,0.202,6.043c-1.028,1.069-2.658,0.794-3.773,0.07
					c-1.687-1.095-1.361-3.439-0.818-5.035C23.495,75.324,20.597,74.542,19.978,76.363L19.978,76.363z"/>
			</g>
		</g>
		<g>
			<g>
				<path fill="#999999" d="M38.257,76.111c5.847-0.555,11.379-2.852,17.267-3.014c1.931-0.053,1.936-3.054,0-3
					c-5.916,0.163-11.412,2.458-17.267,3.014C36.349,73.292,36.331,76.294,38.257,76.111L38.257,76.111z"/>
			</g>
		</g>
		<g>
			<g>
				<path fill="#999999" d="M39.552,82.566c4.898-0.001,9.792-0.019,14.677-0.431c1.913-0.161,1.929-3.163,0-3
					c-4.885,0.412-9.778,0.43-14.677,0.431C37.617,79.566,37.617,82.566,39.552,82.566L39.552,82.566z"/>
			</g>
		</g>
		<g>
			<g>
				<path fill="#999999" d="M7.611,21.022c9.677-0.445,19.201-2.279,28.841-3.126c9.729-0.855,19.67-0.317,29.43-0.317
					c1.935,0,1.935-3,0-3c-9.787,0-19.664-0.386-29.43,0.317c-9.655,0.694-19.158,2.681-28.841,3.126
					C5.686,18.11,5.677,21.111,7.611,21.022L7.611,21.022z"/>
			</g>
		</g>
	</g>
	<g>
		<g>
			<g>
				<path fill="#999999" d="M141.951,11.123c21.663,2.5,43.45,0.492,65.178,0.431c1.935-0.005,1.935-3.005,0-3
					c-21.728,0.062-43.515,2.069-65.178-0.431C140.031,7.901,140.053,10.904,141.951,11.123L141.951,11.123z"/>
			</g>
		</g>
		<g>
			<g>
				<path fill="#999999" d="M143.042,7.041c-0.201,15.081,1.938,30.016,3.336,44.998c1.486,15.934,0.979,31.981,0.979,47.964
					c0,1.935,3,1.935,3,0c0-15.358,0.449-30.768-0.813-46.088c-1.289-15.631-3.712-31.149-3.502-46.874
					C146.067,5.105,143.067,5.108,143.042,7.041L143.042,7.041z"/>
			</g>
		</g>
		<g>
			<g>
				<path fill="#999999" d="M145.404,98.061c20.449-0.014,40.906-0.431,61.291-2.152c1.913-0.162,1.929-3.163,0-3
					c-20.385,1.722-40.842,2.139-61.291,2.152C143.47,95.062,143.47,98.062,145.404,98.061L145.404,98.061z"/>
			</g>
		</g>
		<g>
			<g>
				<path fill="#999999" d="M204.332,5.32c0,31.855,0.015,63.726,1.729,95.544c0.104,1.924,3.104,1.934,3,0
					c-1.714-31.818-1.729-63.689-1.729-95.544C207.332,3.385,204.332,3.385,204.332,5.32L204.332,5.32z"/>
			</g>
		</g>
		<g>
			<g>
				<path fill="#999999" d="M170.472,24.962c-11.288,1.868,0.057,26.232,12.608,20.806c3.428-1.482,6.418-5.314,7.389-8.851
					c1.03-3.754-0.653-7.552-2.946-10.443c-4.537-5.72-13.786-8.026-18.379-1.253c-1.09,1.606,1.511,3.105,2.59,1.514
					c3.608-5.32,10.364-1.954,13.668,1.861c4.399,5.08,1.734,11.742-3.836,14.583c-8.378,4.272-16.95-14.222-10.297-15.323
					C173.174,27.54,172.363,24.649,170.472,24.962L170.472,24.962z"/>
			</g>
		</g>
		<g>
			<g>
				<path fill="#999999" d="M166.554,33.516c-5.755,0-11.51,0-17.265,0c-1.935,0-1.935,3,0,3c5.755,0,11.51,0,17.265,0
					C168.488,36.516,168.488,33.516,166.554,33.516L166.554,33.516z"/>
			</g>
		</g>
		<g>
			<g>
				<path fill="#999999" d="M190.294,35.655c4.333-0.063,8.617-0.798,12.95-0.861c1.933-0.028,1.936-3.028,0-3
					c-4.333,0.063-8.617,0.798-12.95,0.861C188.361,32.683,188.358,35.683,190.294,35.655L190.294,35.655z"/>
			</g>
		</g>
		<g>
			<g>
				<path fill="#999999" d="M154.867,44.209c3.992-0.758,8.082-0.1,12.085-0.861c1.899-0.361,1.093-3.252-0.797-2.893
					c-3.991,0.758-8.081,0.1-12.085,0.861C152.171,41.677,152.978,44.568,154.867,44.209L154.867,44.209z"/>
			</g>
		</g>
		<g>
			<g>
				<path fill="#999999" d="M192.022,42.111c2.733,0,5.467,0,8.2,0c1.935,0,1.935-3,0-3c-2.733,0-5.467,0-8.2,0
					C190.088,39.111,190.088,42.111,192.022,42.111L192.022,42.111z"/>
			</g>
		</g>
		<g>
			<g>
				<path fill="#999999" d="M149.688,57.981c17.924-3.444,36.331-0.889,54.42-0.808c1.935,0.009,1.935-2.991,0-3
					c-18.385-0.082-36.999-2.586-55.217,0.915C146.992,55.453,147.798,58.345,149.688,57.981L149.688,57.981z"/>
			</g>
		</g>
		<g>
			<g>
				<path fill="#999999" d="M174.551,56.535c0.042,13.187,0.902,26.333,3.074,39.347c0.317,1.905,3.208,1.095,2.893-0.797
					c-2.127-12.749-2.926-25.635-2.967-38.55C177.545,54.601,174.545,54.601,174.551,56.535L174.551,56.535z"/>
			</g>
		</g>
		<g>
			<g>
				<path fill="#999999" d="M151.446,81.275c17.58-0.077,35.081-2.074,52.661-2.151c1.935-0.009,1.935-3.009,0-3
					c-17.58,0.077-35.081,2.074-52.661,2.151C149.512,78.284,149.512,81.284,151.446,81.275L151.446,81.275z"/>
			</g>
		</g>
	</g>
	<g>
		<g>
			<g>
				<path fill="#999999" d="M266.181,7.627c12.571,2.707,25.384,2.533,38.174,2.306c13.152-0.234,26.412,0.638,39.453-1.445
					c1.906-0.305,1.095-3.195-0.797-2.893c-12.754,2.038-25.793,1.117-38.656,1.338c-12.518,0.215-25.067,0.452-37.377-2.198
					C265.092,4.328,264.289,7.22,266.181,7.627L266.181,7.627z"/>
			</g>
		</g>
		<g>
			<g>
				<path fill="#999999" d="M268.1,7.041c-0.018,30.988-0.835,61.974-0.431,92.962c0.025,1.933,3.025,1.936,3,0
					c-0.404-30.988,0.413-61.974,0.431-92.962C271.101,5.106,268.101,5.106,268.1,7.041L268.1,7.041z"/>
			</g>
		</g>
		<g>
			<g>
				<path fill="#999999" d="M337.216,3.997c4.573,33.118-2.506,66.292-2.644,99.45c-0.008,1.935,2.992,1.935,3,0
					c0.139-33.463,7.152-66.821,2.536-100.248C339.845,1.29,336.955,2.105,337.216,3.997L337.216,3.997z"/>
			</g>
		</g>
		<g>
			<g>
				<path fill="#999999" d="M268.305,93.756c12.776,0.147,25.271,2.942,37.943,4.243c13.387,1.374,26.41-1.488,39.752-1.661
					c1.934-0.025,1.936-3.025,0-3c-12.701,0.165-25.105,2.743-37.852,1.828c-13.36-0.959-26.402-4.255-39.844-4.41
					C266.369,90.733,266.371,93.733,268.305,93.756L268.305,93.756z"/>
			</g>
		</g>
		<g>
			<g>
				<path fill="#999999" d="M331.127,14.157c-2.285,2.326-4.188,4.992-6.475,7.317c-1.357,1.38,0.763,3.502,2.121,2.121
					c2.287-2.325,4.189-4.991,6.475-7.317C334.604,14.898,332.484,12.775,331.127,14.157L331.127,14.157z"/>
			</g>
		</g>
		<g>
			<g>
				<path fill="#999999" d="M323.789,15.418c3.825,3.072,6.534,7.256,10.359,10.329c1.492,1.199,3.63-0.909,2.121-2.121
					c-3.824-3.073-6.534-7.257-10.359-10.329C324.418,12.098,322.28,14.207,323.789,15.418L323.789,15.418z"/>
			</g>
		</g>
		<g>
			<g>
				<path fill="#999999" d="M270.895,74.82c21.676-2.424,43.434-0.91,65.178-0.861c1.935,0.004,1.935-2.996,0-3
					c-21.744-0.049-43.502-1.563-65.178,0.861C268.994,72.033,268.974,75.035,270.895,74.82L270.895,74.82z"/>
			</g>
		</g>
		<g>
			<g>
				<path fill="#999999" d="M279.247,82.39c-0.57-2.876,1.522-4.873,4.347-4.012c2.052,0.626,3.74,3.036,3.007,5.133
					c-0.438,1.256-2.009,2.257-3.284,2.395c-1.939,0.209-2.33-1.511-2.289-3.117c0.05-1.936-2.95-1.931-3,0
					c-0.084,3.262,1.683,6.33,5.289,6.117c2.93-0.174,5.719-2.415,6.377-5.29c0.894-3.904-2.712-7.788-6.395-8.385
					c-4.851-0.785-7.825,3.519-6.944,7.956C276.73,85.084,279.622,84.278,279.247,82.39L279.247,82.39z"/>
			</g>
		</g>
		<g>
			<g>
				<path fill="#999999" d="M297.225,81.706c9.334,0.854,18.685,1.263,28.057,1.291c1.935,0.006,1.935-2.994,0-3
					c-9.372-0.028-18.723-0.438-28.057-1.291C295.298,78.53,295.314,81.531,297.225,81.706L297.225,81.706z"/>
			</g>
		</g>
		<g>
			<g>
				<path fill="#999999" d="M297.258,87.678c8.292,1.641,16.578,2.126,25.002,1.345c1.909-0.177,1.927-3.179,0-3
					c-8.16,0.757-16.159,0.354-24.205-1.237C296.166,84.411,295.36,87.303,297.258,87.678L297.258,87.678z"/>
			</g>
		</g>
	</g>
</g>
</svg>
