<?xml version="1.0" encoding="utf-8"?>
<!-- Generator: Adobe Illustrator 16.0.0, SVG Export Plug-In . SVG Version: 6.00 Build 0)  -->
<!DOCTYPE svg PUBLIC "-//W3C//DTD SVG 1.1//EN" "http://www.w3.org/Graphics/SVG/1.1/DTD/svg11.dtd">
<svg version="1.1" id="Layer_1" xmlns="http://www.w3.org/2000/svg" xmlns:xlink="http://www.w3.org/1999/xlink" x="0px" y="0px"
	 width="337px" height="78px" viewBox="0 0 337 78" enable-background="new 0 0 337 78" xml:space="preserve">
<g id="IA">
	<g>
		<circle fill="none" stroke="#B3B3B3" stroke-width="3" stroke-miterlimit="10" cx="48.497" cy="10.66" r="8.66"/>
		<circle fill="none" stroke="#B3B3B3" stroke-width="3" stroke-miterlimit="10" cx="48.497" cy="67.34" r="8.66"/>
		<circle fill="none" stroke="#B3B3B3" stroke-width="3" stroke-miterlimit="10" cx="10.66" cy="67.34" r="8.66"/>
		<circle fill="none" stroke="#B3B3B3" stroke-width="3" stroke-miterlimit="10" cx="85.284" cy="67.34" r="8.66"/>
		<line fill="none" stroke="#B3B3B3" stroke-width="3" stroke-miterlimit="10" x1="48.5" y1="19.359" x2="48.5" y2="58.359"/>
		<polyline fill="none" stroke="#B3B3B3" stroke-width="3" stroke-miterlimit="10" points="10.5,58.359 10.5,39.788 10.5,38.859 
			85.5,38.859 85.5,39.788 85.5,58.359 		"/>
	</g>
	<g>
		<path fill="#E8EAF6" stroke="#B3B3B3" stroke-width="3" stroke-miterlimit="10" d="M191.996,54.611l-46.78-25.205l-5.869-19.258
			l19.313-5.691l46.778,25.205L191.996,54.611z M159.711,16.054c-2.104-1.134-4.729-0.347-5.864,1.758
			c-1.134,2.105-0.347,4.731,1.758,5.866c2.105,1.134,4.731,0.347,5.866-1.759C162.604,19.814,161.817,17.188,159.711,16.054z"/>
		<path fill="#E8EAF6" stroke="#B3B3B3" stroke-width="3" stroke-miterlimit="10" d="M173.126,71.38l-34.877-40.091l1.304-20.091
			l20.077,1.489l34.878,40.091L173.126,71.38z M156.525,23.911c-1.57-1.804-4.305-1.995-6.109-0.426
			c-1.804,1.571-1.993,4.305-0.426,6.109c1.57,1.804,4.307,1.995,6.111,0.425C157.904,28.449,158.094,25.715,156.525,23.911z"/>
	</g>
	<g>
		<rect x="254.5" y="9.859" fill="#E8EAF6" stroke="#B3B3B3" stroke-width="3" stroke-miterlimit="10" width="80" height="61"/>
		<rect x="254.5" y="9.859" fill="#E8EAF6" stroke="#B3B3B3" stroke-width="3" stroke-miterlimit="10" width="80" height="16"/>
		<rect x="261.5" y="33.859" fill="#E8EAF6" stroke="#B3B3B3" stroke-width="3" stroke-miterlimit="10" width="15" height="27"/>
		<rect x="285.5" y="33.859" fill="#E8EAF6" stroke="#B3B3B3" stroke-width="3" stroke-miterlimit="10" width="42" height="27"/>
	</g>
</g>
</svg>
