<?xml version="1.0" encoding="utf-8"?>
<!-- Generator: Adobe Illustrator 16.0.0, SVG Export Plug-In . SVG Version: 6.00 Build 0)  -->
<!DOCTYPE svg PUBLIC "-//W3C//DTD SVG 1.1//EN" "http://www.w3.org/Graphics/SVG/1.1/DTD/svg11.dtd">
<svg version="1.1" id="Layer_1" xmlns="http://www.w3.org/2000/svg" xmlns:xlink="http://www.w3.org/1999/xlink" x="0px" y="0px"
	 width="293px" height="138px" viewBox="0 0 293 138" enable-background="new 0 0 293 138" xml:space="preserve">
<g>
	<g opacity="0.5">
		<g>
			<path fill="#333333" d="M2.545,34.607l-0.15,0.023v0.049l0.15,0.023l4.568,1.736v1.928l-6.615-2.95V33.87l6.615-2.95v1.919
				L2.545,34.607z"/>
			<path fill="#333333" d="M10.504,34.861c0-1.369,0.292-2.474,0.877-3.312s1.407-1.257,2.466-1.257
				c0.464,0,0.879,0.094,1.245,0.281s0.684,0.456,0.952,0.806v-4.72h1.921v12.373h-1.612l-0.189-1.063
				c-0.274,0.401-0.604,0.707-0.988,0.916S14.343,39.2,13.831,39.2c-1.049,0-1.865-0.384-2.45-1.15s-0.877-1.774-0.877-3.021V34.861
				z M12.425,35.028c0,0.793,0.151,1.425,0.454,1.896s0.783,0.705,1.442,0.705c0.405,0,0.75-0.087,1.031-0.262
				c0.282-0.174,0.513-0.423,0.691-0.745v-3.743c-0.179-0.317-0.41-0.564-0.695-0.742c-0.284-0.177-0.622-0.266-1.012-0.266
				c-0.653,0-1.136,0.276-1.446,0.829s-0.466,1.272-0.466,2.161V35.028z"/>
			<path fill="#333333" d="M25.313,39.2c-1.212,0-2.177-0.398-2.896-1.194c-0.719-0.796-1.079-1.817-1.079-3.065v-0.317
				c0-1.247,0.357-2.282,1.071-3.104s1.608-1.23,2.684-1.226c1.154,0,2.038,0.351,2.651,1.051c0.614,0.701,0.921,1.641,0.921,2.819
				v1.135H23.33l-0.016,0.039c0.031,0.68,0.23,1.236,0.597,1.668c0.366,0.433,0.873,0.648,1.521,0.648
				c0.517,0,0.959-0.063,1.328-0.19c0.368-0.127,0.724-0.31,1.066-0.547l0.617,1.264c-0.322,0.287-0.749,0.528-1.281,0.726
				C26.631,39.102,26.015,39.2,25.313,39.2z M25.093,31.84c-0.475,0-0.864,0.188-1.17,0.566c-0.306,0.379-0.495,0.858-0.569,1.439
				l0.016,0.04h3.392v-0.198c0-0.545-0.139-0.988-0.415-1.332C26.068,32.012,25.651,31.84,25.093,31.84z"/>
			<path fill="#333333" d="M36.64,36.701c0-0.296-0.127-0.542-0.38-0.737s-0.725-0.367-1.414-0.516
				c-1.022-0.217-1.796-0.524-2.32-0.924s-0.786-0.942-0.786-1.63c0-0.719,0.303-1.333,0.909-1.84
				c0.605-0.508,1.404-0.762,2.395-0.762c1.043,0,1.872,0.258,2.485,0.773c0.614,0.516,0.908,1.153,0.882,1.915l-0.016,0.048h-1.842
				c0-0.354-0.135-0.658-0.403-0.912s-0.638-0.381-1.106-0.381c-0.464,0-0.816,0.104-1.06,0.313
				c-0.242,0.209-0.363,0.464-0.363,0.766c0,0.301,0.115,0.54,0.344,0.718c0.229,0.177,0.694,0.334,1.396,0.472
				c1.075,0.222,1.872,0.535,2.391,0.939c0.52,0.404,0.778,0.956,0.778,1.654c0,0.771-0.317,1.398-0.952,1.879
				c-0.635,0.481-1.472,0.723-2.51,0.723c-1.111,0-1.989-0.286-2.632-0.857c-0.643-0.57-0.948-1.227-0.917-1.967l0.016-0.047h1.787
				c0.021,0.497,0.2,0.858,0.537,1.086s0.748,0.341,1.233,0.341c0.495,0,0.877-0.095,1.146-0.285S36.64,37.024,36.64,36.701z"/>
			<path fill="#333333" d="M43.917,28.35h-1.921V26.66h1.921V28.35z M43.917,39.033h-1.921v-8.582h1.921V39.033z"/>
			<path fill="#333333" d="M47.339,34.861c0-1.364,0.298-2.467,0.893-3.308c0.596-0.841,1.423-1.261,2.482-1.261
				c0.511,0,0.96,0.109,1.348,0.329c0.387,0.22,0.715,0.535,0.984,0.948l0.189-1.119h1.597v8.582c0,1.105-0.34,1.959-1.02,2.562
				c-0.68,0.604-1.645,0.904-2.894,0.904c-0.416,0-0.865-0.06-1.348-0.179c-0.481-0.118-0.918-0.276-1.308-0.472l0.411-1.515
				c0.315,0.164,0.665,0.292,1.047,0.385s0.776,0.139,1.182,0.139c0.695,0,1.204-0.149,1.525-0.448s0.482-0.758,0.482-1.376v-0.881
				c-0.269,0.345-0.586,0.604-0.952,0.781c-0.366,0.178-0.787,0.267-1.261,0.267c-1.049,0-1.871-0.384-2.467-1.15
				c-0.595-0.767-0.893-1.774-0.893-3.021V34.861z M49.26,35.028c0,0.787,0.156,1.418,0.47,1.892c0.313,0.473,0.8,0.709,1.458,0.709
				c0.411,0,0.758-0.085,1.04-0.257c0.281-0.172,0.51-0.42,0.684-0.742v-3.76c-0.18-0.312-0.41-0.556-0.691-0.733
				c-0.282-0.177-0.621-0.266-1.016-0.266c-0.659,0-1.147,0.277-1.467,0.833c-0.318,0.555-0.478,1.274-0.478,2.157V35.028z"/>
			<path fill="#333333" d="M60.214,30.451l0.11,1.237c0.279-0.438,0.631-0.781,1.055-1.026c0.425-0.246,0.902-0.369,1.435-0.369
				c0.891,0,1.585,0.271,2.083,0.813s0.747,1.387,0.747,2.534v5.394h-1.921v-5.377c0-0.646-0.133-1.104-0.399-1.377
				c-0.266-0.271-0.67-0.408-1.213-0.408c-0.374,0-0.709,0.083-1.004,0.25s-0.537,0.396-0.727,0.686v6.227h-1.921v-8.582H60.214z"/>
			<path fill="#333333" d="M69.262,32.815V30.92l6.829,2.95v1.547l-6.829,2.95v-1.896l4.782-1.801l0.142-0.016l0.008-0.048
				l-0.149-0.032L69.262,32.815z"/>
			<path fill="#333333" d="M2.545,54.1l-0.15,0.023v0.049l0.15,0.023l4.568,1.736v1.928l-6.615-2.95v-1.547l6.615-2.95v1.919
				L2.545,54.1z"/>
			<path fill="#333333" d="M12.906,47.842h-1.921v-1.689h1.921V47.842z M12.906,58.525h-1.921v-8.582h1.921V58.525z"/>
			<path fill="#333333" d="M18.414,49.943l0.11,1.237c0.279-0.438,0.631-0.781,1.055-1.026c0.425-0.246,0.902-0.369,1.435-0.369
				c0.891,0,1.585,0.271,2.083,0.813s0.747,1.387,0.747,2.534v5.394h-1.921v-5.377c0-0.646-0.133-1.104-0.399-1.377
				c-0.266-0.271-0.67-0.408-1.213-0.408c-0.374,0-0.709,0.083-1.004,0.25s-0.537,0.396-0.727,0.686v6.227h-1.921v-8.582H18.414z"/>
			<path fill="#333333" d="M29.85,47.857v2.086h1.533v1.428H29.85v4.743c0,0.354,0.076,0.606,0.229,0.758
				c0.152,0.15,0.355,0.226,0.608,0.226c0.105,0,0.208-0.009,0.309-0.027c0.1-0.019,0.194-0.044,0.284-0.075l0.206,1.411
				c-0.164,0.09-0.358,0.16-0.585,0.21c-0.227,0.051-0.461,0.076-0.704,0.076c-0.706,0-1.259-0.208-1.659-0.623
				s-0.601-1.066-0.601-1.955v-4.743h-1.305v-1.428h1.305v-2.086H29.85z"/>
			<path fill="#333333" d="M38.376,58.692c-1.212,0-2.177-0.398-2.896-1.194c-0.719-0.796-1.079-1.817-1.079-3.065v-0.317
				c0-1.247,0.357-2.282,1.071-3.104s1.608-1.23,2.684-1.226c1.154,0,2.038,0.351,2.651,1.051c0.614,0.701,0.921,1.641,0.921,2.819
				v1.135h-5.335l-0.016,0.039c0.031,0.68,0.23,1.236,0.597,1.668c0.366,0.433,0.873,0.648,1.521,0.648
				c0.517,0,0.959-0.063,1.328-0.19c0.368-0.127,0.724-0.31,1.066-0.547l0.617,1.264c-0.322,0.287-0.749,0.528-1.281,0.726
				C39.693,58.594,39.077,58.692,38.376,58.692z M38.155,51.332c-0.475,0-0.864,0.188-1.17,0.566
				c-0.306,0.379-0.495,0.858-0.569,1.439l0.016,0.04h3.392V53.18c0-0.545-0.139-0.988-0.415-1.332
				C39.131,51.504,38.714,51.332,38.155,51.332z"/>
			<path fill="#333333" d="M49.156,51.681l-0.821-0.031c-0.374,0-0.687,0.079-0.937,0.237c-0.251,0.159-0.444,0.384-0.581,0.675
				v5.964h-1.921v-8.582h1.755l0.126,1.245c0.216-0.438,0.494-0.782,0.834-1.03c0.34-0.249,0.731-0.373,1.174-0.373
				c0.116,0,0.224,0.009,0.324,0.027c0.1,0.019,0.192,0.041,0.276,0.067L49.156,51.681z"/>
			<path fill="#333333" d="M57.265,58.525c-0.068-0.217-0.125-0.429-0.17-0.635s-0.075-0.412-0.091-0.618
				c-0.264,0.401-0.61,0.738-1.039,1.011c-0.43,0.272-0.911,0.409-1.443,0.409c-0.89,0-1.574-0.23-2.051-0.69
				s-0.715-1.092-0.715-1.896c0-0.83,0.326-1.477,0.979-1.939s1.573-0.694,2.759-0.694h1.494V52.72c0-0.449-0.132-0.801-0.396-1.055
				s-0.641-0.381-1.13-0.381c-0.438,0-0.785,0.105-1.044,0.317c-0.258,0.211-0.387,0.483-0.387,0.816h-1.85l-0.008-0.047
				c-0.037-0.677,0.265-1.277,0.904-1.801c0.641-0.523,1.475-0.785,2.502-0.785c0.996,0,1.8,0.254,2.411,0.762
				c0.61,0.507,0.916,1.237,0.916,2.188v3.815c0,0.354,0.024,0.693,0.071,1.019c0.048,0.325,0.124,0.645,0.229,0.956H57.265z
				 M54.909,57.146c0.484,0,0.921-0.122,1.309-0.365c0.387-0.243,0.644-0.521,0.771-0.833v-1.269h-1.525
				c-0.559,0-0.996,0.139-1.313,0.416c-0.316,0.278-0.475,0.604-0.475,0.979c0,0.328,0.107,0.589,0.32,0.781
				C54.21,57.049,54.514,57.146,54.909,57.146z"/>
			<path fill="#333333" d="M66.075,57.146c0.469,0,0.864-0.138,1.186-0.414s0.482-0.622,0.482-1.037h1.738l0.016,0.047
				c0.026,0.804-0.299,1.497-0.976,2.078c-0.678,0.582-1.493,0.873-2.446,0.873c-1.26,0-2.226-0.407-2.896-1.222
				c-0.672-0.814-1.008-1.846-1.008-3.094V54.1c0-1.242,0.336-2.272,1.008-3.089c0.671-0.817,1.637-1.226,2.896-1.226
				c1.027,0,1.861,0.3,2.502,0.9c0.64,0.6,0.949,1.362,0.929,2.288l-0.017,0.048h-1.746c0-0.471-0.154-0.87-0.463-1.198
				c-0.308-0.327-0.71-0.491-1.205-0.491c-0.722,0-1.233,0.263-1.533,0.788c-0.301,0.525-0.451,1.184-0.451,1.976v0.277
				c0,0.808,0.15,1.472,0.451,1.992C64.842,56.886,65.354,57.146,66.075,57.146z"/>
			<path fill="#333333" d="M75.045,47.857v2.086h1.533v1.428h-1.533v4.743c0,0.354,0.076,0.606,0.229,0.758
				c0.152,0.15,0.355,0.226,0.608,0.226c0.105,0,0.208-0.009,0.309-0.027c0.1-0.019,0.194-0.044,0.284-0.075l0.206,1.411
				c-0.164,0.09-0.358,0.16-0.585,0.21c-0.227,0.051-0.461,0.076-0.704,0.076c-0.706,0-1.259-0.208-1.659-0.623
				s-0.601-1.066-0.601-1.955v-4.743h-1.305v-1.428h1.305v-2.086H75.045z"/>
			<path fill="#333333" d="M81.951,47.842H80.03v-1.689h1.921V47.842z M81.951,58.525H80.03v-8.582h1.921V58.525z"/>
			<path fill="#333333" d="M85.365,54.155c0-1.274,0.348-2.321,1.043-3.141c0.706-0.819,1.662-1.229,2.869-1.229
				c1.228,0,2.189,0.41,2.885,1.229c0.701,0.814,1.052,1.861,1.052,3.141v0.167c0,1.29-0.351,2.342-1.052,3.156
				c-0.695,0.809-1.651,1.214-2.869,1.214c-1.223,0-2.184-0.407-2.885-1.222c-0.695-0.814-1.043-1.864-1.043-3.148V54.155z
				 M87.286,54.317c0,0.835,0.163,1.516,0.489,2.044c0.321,0.522,0.827,0.784,1.518,0.784c0.67,0,1.17-0.262,1.502-0.784
				c0.337-0.528,0.506-1.209,0.506-2.044v-0.166c0-0.818-0.169-1.491-0.506-2.02c-0.332-0.533-0.838-0.8-1.518-0.8
				c-0.669,0-1.17,0.267-1.502,0.8c-0.326,0.533-0.489,1.206-0.489,2.02V54.317z"/>
			<path fill="#333333" d="M98.247,49.943l0.11,1.237c0.279-0.438,0.631-0.781,1.055-1.026c0.425-0.246,0.902-0.369,1.435-0.369
				c0.891,0,1.585,0.271,2.083,0.813s0.747,1.387,0.747,2.534v5.394h-1.921v-5.377c0-0.646-0.133-1.104-0.399-1.377
				c-0.266-0.271-0.67-0.408-1.213-0.408c-0.374,0-0.709,0.083-1.004,0.25s-0.537,0.396-0.727,0.686v6.227h-1.921v-8.582H98.247z"/>
			<path fill="#333333" d="M107.296,52.308v-1.896l6.829,2.95v1.547l-6.829,2.95v-1.896l4.782-1.801l0.142-0.016l0.008-0.048
				l-0.149-0.032L107.296,52.308z"/>
			<path fill="#333333" d="M2.545,73.592l-0.15,0.023v0.049l0.15,0.023l4.568,1.736v1.928l-6.615-2.95v-1.547l6.615-2.95v1.919
				L2.545,73.592z"/>
			<path fill="#333333" d="M18.368,74.013c0,1.253-0.291,2.262-0.873,3.025c-0.583,0.764-1.403,1.146-2.463,1.146
				c-0.532,0-0.994-0.108-1.387-0.325s-0.721-0.534-0.984-0.952l-0.189,1.11h-1.612V65.645h1.921v4.767
				c0.264-0.364,0.579-0.645,0.948-0.841c0.369-0.195,0.798-0.293,1.288-0.293c1.07,0,1.896,0.418,2.479,1.253
				c0.582,0.836,0.873,1.94,0.873,3.315V74.013z M16.447,73.846c0-0.894-0.152-1.615-0.458-2.165s-0.791-0.825-1.454-0.825
				c-0.427,0-0.784,0.096-1.071,0.286c-0.287,0.189-0.516,0.454-0.684,0.793v3.601c0.163,0.344,0.39,0.609,0.68,0.797
				s0.653,0.281,1.091,0.281c0.664,0,1.146-0.233,1.446-0.701c0.3-0.468,0.45-1.102,0.45-1.899V73.846z"/>
			<path fill="#333333" d="M25.313,78.185c-1.212,0-2.177-0.398-2.896-1.194c-0.719-0.796-1.079-1.817-1.079-3.065v-0.317
				c0-1.247,0.357-2.282,1.071-3.104s1.608-1.23,2.684-1.226c1.154,0,2.038,0.351,2.651,1.051c0.614,0.701,0.921,1.641,0.921,2.819
				v1.135H23.33l-0.016,0.039c0.031,0.68,0.23,1.236,0.597,1.668c0.366,0.433,0.873,0.648,1.521,0.648
				c0.517,0,0.959-0.063,1.328-0.19c0.368-0.127,0.724-0.31,1.066-0.547l0.617,1.264c-0.322,0.287-0.749,0.528-1.281,0.726
				C26.631,78.086,26.015,78.185,25.313,78.185z M25.093,70.824c-0.475,0-0.864,0.188-1.17,0.566
				c-0.306,0.379-0.495,0.858-0.569,1.439l0.016,0.04h3.392v-0.198c0-0.545-0.139-0.988-0.415-1.332
				C26.068,70.996,25.651,70.824,25.093,70.824z"/>
			<path fill="#333333" d="M35.501,78.185c-1.212,0-2.177-0.398-2.896-1.194c-0.719-0.796-1.079-1.817-1.079-3.065v-0.317
				c0-1.247,0.357-2.282,1.071-3.104s1.608-1.23,2.684-1.226c1.154,0,2.038,0.351,2.651,1.051c0.614,0.701,0.921,1.641,0.921,2.819
				v1.135h-5.335l-0.016,0.039c0.031,0.68,0.23,1.236,0.597,1.668c0.366,0.433,0.873,0.648,1.521,0.648
				c0.517,0,0.959-0.063,1.328-0.19c0.368-0.127,0.724-0.31,1.066-0.547l0.617,1.264c-0.322,0.287-0.749,0.528-1.281,0.726
				C36.818,78.086,36.202,78.185,35.501,78.185z M35.28,70.824c-0.475,0-0.864,0.188-1.17,0.566
				c-0.306,0.379-0.495,0.858-0.569,1.439l0.016,0.04h3.392v-0.198c0-0.545-0.139-0.988-0.415-1.332
				C36.256,70.996,35.839,70.824,35.28,70.824z"/>
			<path fill="#333333" d="M46.28,71.173l-0.821-0.031c-0.374,0-0.687,0.079-0.937,0.237c-0.251,0.159-0.444,0.384-0.581,0.675
				v5.964h-1.921v-8.582h1.755l0.126,1.245c0.216-0.438,0.494-0.782,0.834-1.03c0.34-0.249,0.731-0.373,1.174-0.373
				c0.116,0,0.224,0.009,0.324,0.027c0.1,0.019,0.192,0.041,0.276,0.067L46.28,71.173z"/>
			<path fill="#333333" d="M49.243,71.8v-1.896l6.829,2.95v1.547l-6.829,2.95v-1.896l4.782-1.801l0.142-0.016l0.008-0.048
				l-0.149-0.032L49.243,71.8z"/>
		</g>
	</g>
	<rect x="183.795" y="0.5" fill="#B3B3B3" stroke="#808080" stroke-miterlimit="10" width="105" height="52"/>
	<rect x="183.795" y="52.5" fill="none" stroke="#808080" stroke-miterlimit="10" width="105" height="82"/>
	<ellipse fill="#CCCCCC" stroke="#808080" stroke-miterlimit="10" cx="202.602" cy="50.824" rx="9.382" ry="9.414"/>
	<g>
		<line fill="none" stroke="#808080" stroke-miterlimit="10" x1="190.295" y1="6.5" x2="199.295" y2="6.5"/>
		<line fill="none" stroke="#808080" stroke-miterlimit="10" x1="190.295" y1="9.5" x2="199.295" y2="9.5"/>
		<line fill="none" stroke="#808080" stroke-miterlimit="10" x1="190.295" y1="12.5" x2="199.295" y2="12.5"/>
	</g>
	<rect x="190.795" y="69.5" fill="#CCCCCC" stroke="#808080" stroke-miterlimit="10" width="26" height="26"/>
	<rect x="190.795" y="108.5" fill="#CCCCCC" stroke="#808080" stroke-miterlimit="10" width="95" height="26"/>
	<rect x="224.795" y="69.5" fill="#CCCCCC" stroke="#808080" stroke-miterlimit="10" width="26" height="26"/>
	<rect x="258.795" y="69.5" fill="#CCCCCC" stroke="#808080" stroke-miterlimit="10" width="27" height="26"/>
</g>
</svg>
